<?xml version="1.0" encoding="utf-8"?>
<!-- Generator: Adobe Illustrator 23.0.6, SVG Export Plug-In . SVG Version: 6.00 Build 0)  -->
<svg version="1.1" id="Capa_1" xmlns="http://www.w3.org/2000/svg" xmlns:xlink="http://www.w3.org/1999/xlink" x="0px" y="0px"
	 viewBox="0 0 792 612" style="enable-background:new 0 0 792 612;" xml:space="preserve">
<style type="text/css">
	.st0{fill:#FFFFFF;}
	.st1{opacity:0.46;}
	.st2{fill:#070707;}
	.st3{fill:none;}
	.st4{font-family:'GreatVibes-Regular';}
	.st5{font-size:96px;}
</style>
<g>
	<path id="Forma_10" d="M502.1,172.4c0-71.2-57.7-129-128.9-129s-128.9,57.8-128.9,129c-71.2,0-128.9,57.8-128.9,129
		s57.7,129,128.9,129c0,71.2,57.7,129,128.9,129s128.9-57.8,128.9-129c71.2,0,128.9-57.8,128.9-129S573.3,172.4,502.1,172.4z"/>
	<path class="st0" d="M584.2,504.6"/>
	<g>
		<path class="st0" d="M366.4,276.4c3,0.1,8-0.2,13.3-2.3c10.4-4.1,14.2-12.3,15.1-14.5c0.4,2.6,0.5,6.9-1.5,11.3
			c-4.4,9.5-16.9,16.2-28.8,14.8c-15.3-1.8-29-17-25.5-33.9c0.4,2.5,1.6,8.7,7.2,14.5C353.8,274.1,363.8,276,366.4,276.4z"/>
		
			<ellipse transform="matrix(0.1517 -0.9884 0.9884 0.1517 62.255 578.1422)" class="st0" cx="368" cy="252.8" rx="12.1" ry="14.4"/>
		<ellipse transform="matrix(0.1517 -0.9884 0.9884 0.1517 62.6689 578.0826)" cx="368.1" cy="252.5" rx="8.8" ry="10.4"/>
		
			<rect x="366.9" y="238.3" transform="matrix(0.1517 -0.9884 0.9884 0.1517 77.2571 568.4709)" class="st0" width="5.9" height="1.8"/>
		
			<rect x="363" y="265.1" transform="matrix(0.1517 -0.9884 0.9884 0.1517 47.5264 587.3216)" class="st0" width="5.9" height="1.8"/>
		
			<rect x="383.2" y="251.4" transform="matrix(0.1517 -0.9884 0.9884 0.1517 73.7111 595.7837)" class="st0" width="1.5" height="7"/>
		
			<rect x="350.4" y="246.7" transform="matrix(0.1517 -0.9884 0.9884 0.1517 50.5718 559.3607)" class="st0" width="1.5" height="7"/>
		<polygon class="st0" points="383.3,243.8 377.8,247.1 376.7,245.9 382.3,242.5 		"/>
		<polygon class="st0" points="357.7,258.5 352.1,261.9 351.1,260.6 356.6,257.2 		"/>
		<polygon class="st0" points="358.9,244.4 354.1,239.9 355.3,238.9 360.2,243.4 		"/>
		<polygon class="st0" points="381.9,264.9 377.1,260.4 378.3,259.4 383.2,263.9 		"/>
		
			<ellipse transform="matrix(0.1517 -0.9884 0.9884 0.1517 86.2739 585.2681)" class="st0" cx="384.1" cy="242.4" rx="2.3" ry="2.7"/>
		
			<ellipse transform="matrix(0.1517 -0.9884 0.9884 0.1517 81.7438 565.6692)" class="st0" cx="370.4" cy="235.2" rx="2.3" ry="2.7"/>
		
			<ellipse transform="matrix(0.1517 -0.9884 0.9884 0.1517 42.6029 590.3859)" class="st0" cx="365.3" cy="270.4" rx="2.3" ry="2.7"/>
		
			<ellipse transform="matrix(0.1517 -0.9884 0.9884 0.1517 64.4978 553.5919)" class="st0" cx="354.8" cy="239.2" rx="2.3" ry="2.7"/>
		
			<ellipse transform="matrix(0.1517 -0.9884 0.9884 0.1517 76.2238 599.8656)" class="st0" cx="387.6" cy="255.5" rx="2.3" ry="2.7"/>
		
			<ellipse transform="matrix(0.1517 -0.9884 0.9884 0.1517 48.1179 554.8303)" class="st0" cx="347.3" cy="249.4" rx="2.3" ry="2.7"/>
		
			<ellipse transform="matrix(0.1517 -0.9884 0.9884 0.1517 39.8464 569.097)" class="st0" cx="351.5" cy="261.3" rx="2.3" ry="2.7"/>
		
			<ellipse transform="matrix(0.1517 -0.9884 0.9884 0.1517 63.1414 603.8633)" class="st0" cx="383.4" cy="265.1" rx="2.3" ry="2.7"/>
	</g>
</g>
<g id="Capa_2">
	<g class="st1">
		<path class="st0" d="M585.8,267.9c-0.9,0-1.9,0-2.8,0c-14.8,0-29.5,0-44.3,0c-8.3,0-16.5,0-24.8,0c-10.3,0-20.5,0-30.8,0
			c-9.8,0-19.5,0-29.3,0c-10.5,0-21,0-31.5,0c-29,0-57.9,0-86.9,0c-11.4,0-22.9,0-34.3,0c-11.7,0-23.4,0-35,0c-9.7,0-19.4,0-29,0
			c-9.8,0-19.7,0-29.5,0c-4.7,0-9.4,0-14.1,0c-1.4-0.8-2.3-2.2-2.3-3.6c0-2,1-3.6,2.3-3.6c4.5,0,9.1,0,13.6,0c10,0,20,0,30,0
			c9.7,0,19.4,0,29,0c11.8,0,23.7,0,35.5,0c11.4,0,22.9,0,34.3,0c9.6,0,19.2,0,28.8,0c8.3,0,16.7,0,25,0c10.9,0,21.9,0,32.8,0
			c10.4,0,20.9,0,31.3,0c9.7,0,19.4,0,29,0c10.4,0,20.9,0,31.3,0c8.3,0,16.7,0,25,0c13.3,0,26.7,0,40,0c2.2,0,4.4,0,6.6,0
			c1.3,0,2.3,1.6,2.3,3.6C588.1,266.3,587.1,267.9,585.8,267.9z"/>
		<rect x="196.2" y="262" class="st2" width="4.4" height="4.6"/>
		<rect x="203.1" y="262" class="st2" width="4.4" height="4.6"/>
		<rect x="210.1" y="262" class="st2" width="4.4" height="4.6"/>
		<rect x="217.6" y="262" class="st2" width="4.4" height="4.6"/>
		<rect x="224.6" y="262" class="st2" width="4.4" height="4.6"/>
		<rect x="231.6" y="262" class="st2" width="4.4" height="4.6"/>
		<rect x="238.3" y="262" class="st2" width="4.4" height="4.6"/>
		<rect x="245.3" y="262" class="st2" width="4.4" height="4.6"/>
		<rect x="252.3" y="262" class="st2" width="4.4" height="4.6"/>
		<rect x="259.5" y="262" class="st2" width="4.4" height="4.6"/>
		<rect x="266.4" y="262" class="st2" width="4.4" height="4.6"/>
		<rect x="273.4" y="262" class="st2" width="4.4" height="4.6"/>
		<rect x="280.6" y="262" class="st2" width="4.4" height="4.6"/>
		<rect x="287.6" y="262" class="st2" width="4.4" height="4.6"/>
		<rect x="294.6" y="262" class="st2" width="4.4" height="4.6"/>
		<rect x="301.9" y="262" class="st2" width="4.4" height="4.6"/>
		<rect x="308.8" y="262" class="st2" width="4.4" height="4.6"/>
		<rect x="315.8" y="262" class="st2" width="4.4" height="4.6"/>
		<rect x="322.5" y="262" class="st2" width="4.4" height="4.6"/>
		<rect x="329.5" y="262" class="st2" width="4.4" height="4.6"/>
		<rect x="336.5" y="262" class="st2" width="4.4" height="4.6"/>
		<rect x="343.4" y="262" class="st2" width="4.4" height="4.6"/>
		<rect x="350.4" y="262" class="st2" width="4.4" height="4.6"/>
		<rect x="357.4" y="262" class="st2" width="4.4" height="4.6"/>
		<rect x="364.6" y="262" class="st2" width="4.4" height="4.6"/>
		<rect x="371.6" y="262" class="st2" width="4.4" height="4.6"/>
		<rect x="378.6" y="262" class="st2" width="4.4" height="4.6"/>
		<rect x="385.3" y="262" class="st2" width="4.4" height="4.6"/>
		<rect x="392.3" y="262" class="st2" width="4.4" height="4.6"/>
		<rect x="399.3" y="262" class="st2" width="4.4" height="4.6"/>
		<rect x="405.8" y="262" class="st2" width="4.4" height="4.6"/>
		<rect x="412.8" y="262" class="st2" width="4.4" height="4.6"/>
		<rect x="419.8" y="262" class="st2" width="4.4" height="4.6"/>
		<rect x="427.2" y="262" class="st2" width="4.4" height="4.6"/>
		<rect x="434.2" y="262" class="st2" width="4.4" height="4.6"/>
		<rect x="441.1" y="262" class="st2" width="4.4" height="4.6"/>
		<rect x="448.1" y="262" class="st2" width="4.4" height="4.6"/>
		<rect x="455.1" y="262" class="st2" width="4.4" height="4.6"/>
		<rect x="462.1" y="262" class="st2" width="4.4" height="4.6"/>
		<rect x="469.2" y="262" class="st2" width="4.4" height="4.6"/>
		<rect x="476.1" y="262" class="st2" width="4.4" height="4.6"/>
		<rect x="483.1" y="262" class="st2" width="4.4" height="4.6"/>
		<rect x="489.8" y="262" class="st2" width="4.4" height="4.6"/>
		<rect x="496.7" y="262" class="st2" width="4.4" height="4.6"/>
		<rect x="503.7" y="262" class="st2" width="4.4" height="4.6"/>
		<rect x="510.6" y="262" class="st2" width="4.4" height="4.6"/>
		<rect x="517.6" y="262" class="st2" width="4.4" height="4.6"/>
		<rect x="524.5" y="262" class="st2" width="4.4" height="4.6"/>
		<rect x="531.7" y="262" class="st2" width="4.4" height="4.6"/>
		<rect x="538.7" y="262" class="st2" width="4.4" height="4.6"/>
		<rect x="545.7" y="262" class="st2" width="4.4" height="4.6"/>
		<rect x="552.4" y="262" class="st2" width="4.4" height="4.6"/>
		<rect x="559.4" y="262" class="st2" width="4.4" height="4.6"/>
		<rect x="566.4" y="262" class="st2" width="4.4" height="4.6"/>
		<rect x="573" y="262" class="st2" width="4.4" height="4.6"/>
		<rect x="579.8" y="262" class="st2" width="4.4" height="4.6"/>
		<path class="st0" d="M585.2,351.2H192.5c-1.2,0-2.1-0.9-2.1-2.1v-2.9c0-1.2,0.9-2.1,2.1-2.1h392.7c1.2,0,2.1,0.9,2.1,2.1v2.9
			C587.3,350.3,586.4,351.2,585.2,351.2z"/>
		<rect x="195.4" y="345.4" class="st2" width="4.4" height="4.6"/>
		<rect x="202.4" y="345.4" class="st2" width="4.4" height="4.6"/>
		<rect x="209.4" y="345.4" class="st2" width="4.4" height="4.6"/>
		<rect x="216.9" y="345.4" class="st2" width="4.4" height="4.6"/>
		<rect x="223.9" y="345.4" class="st2" width="4.4" height="4.6"/>
		<rect x="230.8" y="345.4" class="st2" width="4.4" height="4.6"/>
		<rect x="237.6" y="345.4" class="st2" width="4.4" height="4.6"/>
		<rect x="244.5" y="345.4" class="st2" width="4.4" height="4.6"/>
		<rect x="251.5" y="345.4" class="st2" width="4.4" height="4.6"/>
		<rect x="258.7" y="345.4" class="st2" width="4.4" height="4.6"/>
		<rect x="265.7" y="345.4" class="st2" width="4.4" height="4.6"/>
		<rect x="272.7" y="345.4" class="st2" width="4.4" height="4.6"/>
		<rect x="279.9" y="345.4" class="st2" width="4.4" height="4.6"/>
		<rect x="286.9" y="345.4" class="st2" width="4.4" height="4.6"/>
		<rect x="293.8" y="345.4" class="st2" width="4.4" height="4.6"/>
		<rect x="301.1" y="345.4" class="st2" width="4.4" height="4.6"/>
		<rect x="308.1" y="345.4" class="st2" width="4.4" height="4.6"/>
		<rect x="315.1" y="345.4" class="st2" width="4.4" height="4.6"/>
		<rect x="321.7" y="345.4" class="st2" width="4.4" height="4.6"/>
		<rect x="328.7" y="345.4" class="st2" width="4.4" height="4.6"/>
		<rect x="335.7" y="345.4" class="st2" width="4.4" height="4.6"/>
		<rect x="342.7" y="345.4" class="st2" width="4.4" height="4.6"/>
		<rect x="349.7" y="345.4" class="st2" width="4.4" height="4.6"/>
		<rect x="356.6" y="345.4" class="st2" width="4.4" height="4.6"/>
		<rect x="363.8" y="345.4" class="st2" width="4.4" height="4.6"/>
		<rect x="370.8" y="345.4" class="st2" width="4.4" height="4.6"/>
		<rect x="377.8" y="345.4" class="st2" width="4.4" height="4.6"/>
		<rect x="384.6" y="345.4" class="st2" width="4.4" height="4.6"/>
		<rect x="391.5" y="345.4" class="st2" width="4.4" height="4.6"/>
		<rect x="398.5" y="345.4" class="st2" width="4.4" height="4.6"/>
		<rect x="405" y="345.4" class="st2" width="4.4" height="4.6"/>
		<rect x="412" y="345.4" class="st2" width="4.4" height="4.6"/>
		<rect x="419" y="345.4" class="st2" width="4.4" height="4.6"/>
		<rect x="426.4" y="345.4" class="st2" width="4.4" height="4.6"/>
		<rect x="433.4" y="345.4" class="st2" width="4.4" height="4.6"/>
		<rect x="440.4" y="345.4" class="st2" width="4.4" height="4.6"/>
		<rect x="447.4" y="345.4" class="st2" width="4.4" height="4.6"/>
		<rect x="454.3" y="345.4" class="st2" width="4.4" height="4.6"/>
		<rect x="461.3" y="345.4" class="st2" width="4.4" height="4.6"/>
		<rect x="468.4" y="345.4" class="st2" width="4.4" height="4.6"/>
		<rect x="475.4" y="345.4" class="st2" width="4.4" height="4.6"/>
		<rect x="482.4" y="345.4" class="st2" width="4.4" height="4.6"/>
		<rect x="489" y="345.4" class="st2" width="4.4" height="4.6"/>
		<rect x="496" y="345.4" class="st2" width="4.4" height="4.6"/>
		<rect x="503" y="345.4" class="st2" width="4.4" height="4.6"/>
		<rect x="509.8" y="345.4" class="st2" width="4.4" height="4.6"/>
		<rect x="516.8" y="345.4" class="st2" width="4.4" height="4.6"/>
		<rect x="523.8" y="345.4" class="st2" width="4.4" height="4.6"/>
		<rect x="530.9" y="345.4" class="st2" width="4.4" height="4.6"/>
		<rect x="537.9" y="345.4" class="st2" width="4.4" height="4.6"/>
		<rect x="544.9" y="345.4" class="st2" width="4.4" height="4.6"/>
		<rect x="551.6" y="345.4" class="st2" width="4.4" height="4.6"/>
		<rect x="558.6" y="345.4" class="st2" width="4.4" height="4.6"/>
		<rect x="565.6" y="345.4" class="st2" width="4.4" height="4.6"/>
		<rect x="572.3" y="345.4" class="st2" width="4.4" height="4.6"/>
		<rect x="579" y="345.4" class="st2" width="4.4" height="4.6"/>
		<rect x="267.3" y="267.9" class="st0" width="7.6" height="76.2"/>
		<rect x="213.9" y="267.9" class="st0" width="7.6" height="76.2"/>
		<rect x="324.9" y="267.9" class="st0" width="7.6" height="76.2"/>
		<rect x="378.4" y="267.9" class="st0" width="7.6" height="76.2"/>
		<rect x="431.5" y="267.9" class="st0" width="7.6" height="76.2"/>
		<rect x="485.5" y="267.9" class="st0" width="7.6" height="76.2"/>
		<rect x="541.9" y="267.9" class="st0" width="7.6" height="76.2"/>
	</g>
</g>
<g>
	<rect x="197.5" y="254.8" class="st3" width="374.7" height="120.5"/>
	<text transform="matrix(1 0 0 1 219.1272 314.8604)" class="st0 st4 st5">Pi Kraft</text>
</g>
<image style="overflow:visible;enable-background:new    ;" width="512" height="512" xlink:href="33AFD88DC121B3C6.png"  transform="matrix(0.2122 4.475043e-03 -4.152384e-03 0.1969 367.5869 132.1046)">
</image>
<g>
	<g>
		<path class="st0" d="M569.9,314.3c3.2,0,3.2-5,0-5S566.7,314.3,569.9,314.3L569.9,314.3z"/>
	</g>
</g>
<g id="Capa_4">
	<circle class="st0" cx="373.2" cy="69.8" r="12.7"/>
	<circle class="st0" cx="379.2" cy="533.6" r="12.7"/>
	<circle class="st0" cx="604.2" cy="293" r="12.7"/>
	<circle class="st0" cx="138.7" cy="301.3" r="12.7"/>
</g>
</svg>
